<svg width="2520" height="604" viewBox="0 0 2520 604" fill="none" xmlns="http://www.w3.org/2000/svg">
<path d="M343.9 1.00003C327.5 3.80003 307.4 12.5 293 23.1C259.7 47.5 236.5 91.9 238.2 128.1C238.5 133.4 239 138.3 239.5 139C240.6 140.8 255 139.7 265.2 137.1C290.4 130.6 318.4 110.7 333.1 88.7C348.6 65.6 356.5 41.1 357.7 13.2L358.3 3.05176e-05L353.4 0.100037C350.7 0.200027 346.4 0.600037 343.9 1.00003Z" fill="black"/>
<path d="M2046.1 37.1C2029.2 39.9 2013.5 54 2008.6 70.9C2006.3 78.9 2006.5 92.5 2009.1 100.3C2015.9 120.6 2033.3 133 2054.9 133C2074.7 133 2090.2 123.6 2098.6 106.5C2112.7 77.8 2096.4 44.1 2065.2 37.4C2057.7 35.9 2054 35.8 2046.1 37.1Z" fill="black"/>
<path d="M579.7 42.7C579.3 43 579 168.1 579 320.7V598H617H655V392.9C655 200.4 655.1 187.9 656.7 188.2C658 188.4 680.1 242.8 740.3 393.3L822.2 598L854.2 597.8L886.2 597.5L968 393C1024.9 250.7 1050.3 188.4 1051.4 188.2C1052.9 187.9 1053 205.3 1053 392.9V598H1092.5H1132V320V42L1081.9 42.2L1031.7 42.5L943.6 264.3C877.4 430.9 855.1 486 854 485.8C853 485.6 822.4 409.6 765.3 266C717.3 145.3 677.6 45.5 677.1 44.2L676 42H628.2C601.9 42 580 42.3 579.7 42.7Z" fill="black"/>
<path d="M338.5 146.1C322 147.8 308.7 151.6 278.2 163.1C266.5 167.5 254.1 171.7 250.9 172.3C242.3 173.9 236.1 172.3 211 162.3C178 149.1 165.8 146 146.9 146C100.4 146 53.2 174.9 28.1 218.9C13.4 244.5 6 266.7 1.9 297C0.2 309.3 0.2 343.4 1.9 357.5C8.9 417.4 30.4 475.9 63.9 526.1C92.3 568.6 112.4 588.3 137 597.6C143.8 600.1 145.7 600.4 157.5 600.4C173.2 600.5 177 599.5 200.4 589.8C226.2 579.1 232.7 577.6 254 577.6C276.8 577.6 279.8 578.3 313.5 592.3C330.2 599.3 335.5 600.5 350.5 600.5C361.5 600.5 364.6 600.1 370.5 598.2C392.8 590.8 412.9 572 437.6 535.5C451 515.7 462 495.5 471 474.5C475 465.2 482 445.8 482 444.1C482 443.7 479.9 442.4 477.3 441.1C470.1 437.6 454.3 426.9 447.4 420.9C423.1 399.6 408.7 372.4 404.4 339.6C398.1 291.9 417.3 246 457 214.1L466.9 206.1L462.5 200.1C446.4 178.2 423 161.3 397 152.6C379.5 146.8 356.4 144.2 338.5 146.1Z" fill="black"/>
<path d="M2330 182.6C2328.1 182.8 2322.3 183.5 2317.1 184.1C2311.9 184.7 2302.5 186.5 2296.1 188C2230.3 204.1 2184.6 251.8 2166.5 323C2155 368.5 2156.2 428.5 2169.5 472.5C2190.6 542.2 2239.3 585.9 2309 598C2324.8 600.7 2352.3 601.7 2367.5 600.1C2412.2 595.4 2446 580.2 2474.1 552.1C2491.7 534.5 2501.8 518.7 2510.3 496C2513.8 486.4 2518.6 466.9 2519.2 459.5L2519.5 455.5L2480.4 455.2L2441.3 455L2438 464.7C2426.4 499.9 2406 520.2 2374.3 528.2C2366.7 530.2 2363 530.5 2347 530.4C2325.7 530.3 2318.7 529 2304.1 522C2269.4 505.4 2248.2 470.4 2241.9 419.5C2240.1 405.1 2240.4 373.9 2242.5 360.5C2247.7 325.9 2258.7 300.9 2277.4 281.2C2289.7 268.3 2304.2 259.7 2322 254.8C2329.3 252.8 2332.8 252.5 2347 252.6C2365.1 252.6 2371.4 253.7 2384.7 259C2410 269.2 2429.9 292.5 2438.3 321.7C2439.6 326.3 2440.8 330.2 2441.1 330.4C2441.5 330.8 2519.2 328.1 2519.7 327.7C2520.1 327.2 2516.9 310.4 2515 303C2506.7 270.6 2487.2 240.1 2461.5 219.3C2439.7 201.7 2410.5 189.3 2379.2 184.4C2369.8 183 2337.1 181.7 2330 182.6Z" fill="black"/>
<path d="M1766.5 185.6C1731.4 188.5 1701.2 198.2 1677.7 214.3C1648.8 234 1632 263.7 1630.3 298C1628.3 338.7 1644 370.9 1676.2 392.1C1697.9 406.3 1716.6 412.8 1776.5 427.1C1832 440.2 1839.3 442.8 1851.1 453.7C1861 462.9 1865.7 478.2 1863.2 493.3C1858.2 522.9 1829.6 540 1785 540C1748.5 540 1723.6 528.7 1709.7 505.8C1706.1 499.8 1701.9 488.6 1700.5 480.7L1699.8 477H1658.9C1620.6 477 1618 477.1 1618 478.7C1618 479.7 1618.7 484.6 1619.5 489.5C1631.2 561.7 1692.1 604 1784.4 604C1867 604 1929.9 564.4 1943 504.1C1948.6 478.7 1945.4 449.6 1934.9 430.1C1923.9 409.6 1905 394.4 1876.4 383.2C1862.1 377.5 1850.8 374.4 1803 363.1C1779.6 357.5 1756.9 351.8 1752.5 350.4C1724 341.1 1709 324.7 1709 303C1709 277.7 1727.5 258.8 1759.5 251.4C1771.5 248.6 1799.4 248.8 1810.5 251.8C1837.3 259.1 1856.1 278.1 1861.9 304.1C1862.6 307.1 1863.4 310.3 1863.7 311.3C1864.1 312.9 1866.6 313 1901.8 312.8L1939.5 312.5L1939.2 306C1938.7 297.2 1935.5 281.6 1932.4 272.8C1915.8 226.3 1875.8 196.4 1818.4 187.5C1808.7 186 1776.5 184.8 1766.5 185.6Z" fill="black"/>
<path d="M1214 327.3C1214 416.4 1214.4 467.4 1215.1 474.6C1223.1 556.6 1274 604.1 1354 604C1410.5 603.9 1453.2 579.5 1475.1 534.8C1476.9 531 1479 528 1479.7 528C1480.7 528 1481 535.2 1481 563V598H1520.5H1560V576.2C1560 564.3 1559.3 474.2 1558.5 376C1557.7 277.8 1557 196 1557 194.2V191H1516H1475V313.2C1475 395.9 1474.6 438.4 1473.9 444.5C1468.5 488.5 1444.5 518.9 1408 528C1395.1 531.3 1372.5 531.8 1360 529.2C1326.3 522.2 1307 502.5 1298.7 466.5C1296.6 457.6 1296.6 455.3 1296.3 324.2L1295.9 191H1255H1214V327.3Z" fill="black"/>
<path d="M2013 394.5V598H2054H2095V394.5V191H2054H2013V394.5Z" fill="black"/>
</svg>
