<svg width="2520" height="604" viewBox="0 0 2520 604" fill="none" xmlns="http://www.w3.org/2000/svg">
<path d="M343.275 1.00015C326.875 3.80016 306.775 12.5002 292.375 23.1002C259.075 47.5002 235.875 91.9002 237.575 128.1C237.875 133.4 238.375 138.3 238.875 139C239.975 140.8 254.375 139.7 264.575 137.1C289.775 130.6 317.775 110.7 332.475 88.7002C347.975 65.6002 355.875 41.1002 357.075 13.2002L357.675 0.000152588L352.775 0.100159C350.075 0.20015 345.775 0.600159 343.275 1.00015Z" fill="white"/>
<path d="M2045.48 37.1001C2028.58 39.9001 2012.88 54.0001 2007.98 70.9001C2005.68 78.9001 2005.88 92.5001 2008.48 100.3C2015.28 120.6 2032.68 133 2054.28 133C2074.08 133 2089.58 123.6 2097.98 106.5C2112.08 77.8001 2095.78 44.1001 2064.58 37.4001C2057.08 35.9001 2053.38 35.8001 2045.48 37.1001Z" fill="white"/>
<path d="M579.075 42.7C578.675 43 578.375 168.1 578.375 320.7V598H616.375H654.375V392.9C654.375 200.4 654.475 187.9 656.075 188.2C657.375 188.4 679.475 242.8 739.675 393.3L821.575 598L853.575 597.8L885.575 597.5L967.375 393C1024.27 250.7 1049.68 188.4 1050.77 188.2C1052.27 187.9 1052.38 205.3 1052.38 392.9V598H1091.88H1131.38V320V42L1081.27 42.2L1031.08 42.5L942.975 264.3C876.775 430.9 854.475 486 853.375 485.8C852.375 485.6 821.775 409.6 764.675 266C716.675 145.3 676.975 45.5 676.475 44.2L675.375 42H627.575C601.275 42 579.375 42.3 579.075 42.7Z" fill="white"/>
<path d="M337.875 146.1C321.375 147.8 308.075 151.6 277.575 163.1C265.875 167.5 253.475 171.7 250.275 172.3C241.675 173.9 235.475 172.3 210.375 162.3C177.375 149.1 165.175 146 146.275 146C99.775 146 52.575 174.9 27.475 218.9C12.775 244.5 5.375 266.7 1.275 297C-0.425 309.3 -0.425 343.4 1.275 357.5C8.275 417.4 29.775 475.9 63.275 526.1C91.675 568.6 111.775 588.3 136.375 597.6C143.175 600.1 145.075 600.4 156.875 600.4C172.575 600.5 176.375 599.5 199.775 589.8C225.575 579.1 232.075 577.6 253.375 577.6C276.175 577.6 279.175 578.3 312.875 592.3C329.575 599.3 334.875 600.5 349.875 600.5C360.875 600.5 363.975 600.1 369.875 598.2C392.175 590.8 412.275 572 436.975 535.5C450.375 515.7 461.375 495.5 470.375 474.5C474.375 465.2 481.375 445.8 481.375 444.1C481.375 443.7 479.275 442.4 476.675 441.1C469.475 437.6 453.675 426.9 446.775 420.9C422.475 399.6 408.075 372.4 403.775 339.6C397.475 291.9 416.675 246 456.375 214.1L466.275 206.1L461.875 200.1C445.775 178.2 422.375 161.3 396.375 152.6C378.875 146.8 355.775 144.2 337.875 146.1Z" fill="white"/>
<path d="M2329.37 182.6C2327.47 182.8 2321.67 183.5 2316.47 184.1C2311.27 184.7 2301.87 186.5 2295.47 188C2229.67 204.1 2183.97 251.8 2165.87 323C2154.37 368.5 2155.57 428.5 2168.87 472.5C2189.97 542.2 2238.67 585.9 2308.37 598C2324.17 600.7 2351.67 601.7 2366.87 600.1C2411.57 595.4 2445.37 580.2 2473.47 552.1C2491.07 534.5 2501.17 518.7 2509.67 496C2513.17 486.4 2517.97 466.9 2518.57 459.5L2518.87 455.5L2479.77 455.2L2440.67 455L2437.37 464.7C2425.77 499.9 2405.37 520.2 2373.67 528.2C2366.07 530.2 2362.37 530.5 2346.37 530.4C2325.07 530.3 2318.07 529 2303.47 522C2268.77 505.4 2247.57 470.4 2241.27 419.5C2239.47 405.1 2239.77 373.9 2241.87 360.5C2247.07 325.9 2258.07 300.9 2276.77 281.2C2289.07 268.3 2303.57 259.7 2321.37 254.8C2328.67 252.8 2332.17 252.5 2346.37 252.6C2364.47 252.6 2370.77 253.7 2384.07 259C2409.37 269.2 2429.27 292.5 2437.67 321.7C2438.97 326.3 2440.17 330.2 2440.47 330.4C2440.87 330.8 2518.57 328.1 2519.07 327.7C2519.47 327.2 2516.27 310.4 2514.37 303C2506.07 270.6 2486.57 240.1 2460.87 219.3C2439.07 201.7 2409.87 189.3 2378.57 184.4C2369.17 183 2336.47 181.7 2329.37 182.6Z" fill="white"/>
<path d="M1765.88 185.6C1730.78 188.5 1700.58 198.2 1677.08 214.3C1648.18 234 1631.38 263.7 1629.68 298C1627.68 338.7 1643.38 370.9 1675.58 392.1C1697.28 406.3 1715.97 412.8 1775.88 427.1C1831.38 440.2 1838.68 442.8 1850.48 453.7C1860.38 462.9 1865.07 478.2 1862.57 493.3C1857.57 522.9 1828.98 540 1784.38 540C1747.88 540 1722.97 528.7 1709.08 505.8C1705.47 499.8 1701.28 488.6 1699.88 480.7L1699.18 477H1658.28C1619.98 477 1617.38 477.1 1617.38 478.7C1617.38 479.7 1618.07 484.6 1618.88 489.5C1630.57 561.7 1691.47 604 1783.78 604C1866.38 604 1929.27 564.4 1942.38 504.1C1947.98 478.7 1944.77 449.6 1934.27 430.1C1923.27 409.6 1904.38 394.4 1875.77 383.2C1861.48 377.5 1850.18 374.4 1802.38 363.1C1778.98 357.5 1756.28 351.8 1751.88 350.4C1723.38 341.1 1708.38 324.7 1708.38 303C1708.38 277.7 1726.88 258.8 1758.88 251.4C1770.88 248.6 1798.78 248.8 1809.88 251.8C1836.68 259.1 1855.48 278.1 1861.28 304.1C1861.98 307.1 1862.78 310.3 1863.07 311.3C1863.48 312.9 1865.98 313 1901.18 312.8L1938.88 312.5L1938.58 306C1938.08 297.2 1934.88 281.6 1931.77 272.8C1915.18 226.3 1875.18 196.4 1817.78 187.5C1808.07 186 1775.88 184.8 1765.88 185.6Z" fill="white"/>
<path d="M1213.38 327.3C1213.38 416.4 1213.78 467.4 1214.48 474.6C1222.48 556.6 1273.38 604.1 1353.38 604C1409.88 603.9 1452.57 579.5 1474.48 534.8C1476.27 531 1478.38 528 1479.08 528C1480.08 528 1480.38 535.2 1480.38 563V598H1519.88H1559.38V576.2C1559.38 564.3 1558.68 474.2 1557.88 376C1557.08 277.8 1556.38 196 1556.38 194.2V191H1515.38H1474.38V313.2C1474.38 395.9 1473.98 438.4 1473.27 444.5C1467.88 488.5 1443.88 518.9 1407.38 528C1394.48 531.3 1371.88 531.8 1359.38 529.2C1325.68 522.2 1306.38 502.5 1298.08 466.5C1295.97 457.6 1295.97 455.3 1295.68 324.2L1295.28 191H1254.38H1213.38V327.3Z" fill="white"/>
<path d="M2012.38 394.5V598H2053.38H2094.38V394.5V191H2053.38H2012.38V394.5Z" fill="white"/>
</svg>
